<?xml version="1.0" standalone="no"?>
<!DOCTYPE svg PUBLIC "-//W3C//DTD SVG 20010904//EN"
 "http://www.w3.org/TR/2001/REC-SVG-20010904/DTD/svg10.dtd">
<svg version="1.0" xmlns="http://www.w3.org/2000/svg"
 width="1186.000000pt" height="674.000000pt" viewBox="0 0 1186.000000 674.000000"
 preserveAspectRatio="xMidYMid meet">
<g transform="translate(0.000000,674.000000) scale(0.100000,-0.100000)"
fill="#000000" stroke="none">
<path d="M6020 5773 c-193 -13 -412 -51 -550 -94 -47 -15 -241 -100 -259 -113
-30 -23 3 -251 53 -370 29 -69 218 -338 289 -413 26 -26 47 -53 47 -60 0 -6 3
-13 8 -15 7 -3 38 -40 85 -101 78 -100 125 -139 182 -150 35 -6 51 4 85 53 13
19 34 46 47 59 12 13 33 37 45 53 13 17 31 38 41 46 9 9 17 20 17 25 0 4 10
18 23 30 12 12 38 42 57 67 19 25 37 47 40 50 3 3 11 16 18 31 7 14 26 39 43
57 16 17 29 34 29 37 0 3 18 24 40 46 22 22 40 46 40 52 0 7 18 35 40 62 22
28 40 56 40 63 0 6 5 12 10 12 6 0 10 7 10 15 0 8 8 19 18 24 10 5 24 25 32
45 7 20 17 36 22 36 4 0 8 9 8 20 0 11 5 20 10 20 6 0 10 6 10 14 0 8 11 38
25 68 14 29 25 62 25 73 -1 14 -5 11 -15 -13 -8 -17 -25 -47 -39 -65 -13 -17
-28 -45 -32 -62 -4 -16 -12 -33 -18 -37 -6 -4 -11 -11 -11 -16 0 -5 -8 -16
-17 -26 -10 -10 -18 -23 -18 -29 0 -7 -20 -34 -45 -60 -25 -27 -45 -54 -45
-60 0 -7 -16 -28 -35 -47 -19 -19 -35 -39 -35 -45 0 -11 -30 -47 -98 -120 -21
-22 -49 -57 -62 -77 -14 -21 -31 -38 -37 -38 -7 0 -20 -15 -29 -32 -17 -34
-36 -57 -133 -165 -51 -58 -81 -77 -81 -53 0 6 -7 10 -15 10 -8 0 -15 8 -15
19 0 10 -7 24 -15 31 -8 7 -15 17 -15 22 0 6 -11 19 -24 29 -14 11 -28 28 -31
39 -4 11 -11 20 -17 20 -13 0 -35 27 -48 58 -5 12 -16 22 -25 22 -8 0 -15 5
-15 11 0 6 -11 20 -25 31 -14 11 -23 24 -20 29 4 5 -3 9 -14 9 -12 0 -21 7
-21 15 0 8 -5 15 -10 15 -6 0 -16 11 -22 25 -6 14 -15 25 -20 25 -13 0 -68 56
-68 69 0 6 -9 16 -20 23 -11 7 -20 18 -20 24 0 6 -17 26 -39 45 -21 19 -50 52
-64 75 -14 22 -32 47 -39 55 -40 39 -92 245 -71 275 21 28 220 88 378 113 140
23 393 40 538 36 240 -7 373 -39 585 -143 46 -22 65 -24 58 -5 -3 8 -6 18 -6
23 0 19 -71 75 -135 106 -160 77 -394 113 -625 97z"/>
<path d="M5913 5623 c-60 -141 -87 -383 -52 -471 l18 -47 2 50 c7 157 9 197
17 260 5 39 19 104 31 145 24 89 25 90 8 90 -6 0 -17 -12 -24 -27z"/>
<path d="M4385 5285 c-17 -7 -43 -30 -60 -51 -32 -41 -98 -114 -211 -234 -40
-41 -104 -113 -145 -160 -40 -47 -80 -94 -90 -105 -10 -11 -50 -59 -87 -106
-55 -68 -74 -102 -91 -157 -31 -103 -28 -115 17 -67 21 22 104 123 185 225 81
102 165 205 185 229 20 25 55 68 77 97 22 28 61 78 86 110 25 33 69 94 98 137
29 42 57 77 62 77 18 0 114 -77 141 -112 25 -33 50 -82 96 -188 41 -95 80
-286 106 -528 14 -128 28 -162 67 -162 35 0 39 31 23 171 -18 163 -29 230 -55
334 -19 75 -90 242 -108 255 -4 3 -26 31 -49 62 -39 52 -149 151 -197 176 -15
7 -29 7 -50 -3z"/>
<path d="M7591 4984 c-30 -8 -70 -27 -89 -42 -19 -15 -46 -35 -60 -44 -15 -9
-31 -20 -37 -25 -5 -4 -22 -14 -37 -22 -15 -8 -36 -21 -46 -30 -10 -9 -29 -22
-43 -30 -35 -20 -206 -160 -259 -213 -53 -51 -110 -134 -110 -158 0 -10 6 -23
14 -29 7 -6 16 -24 19 -39 10 -47 109 -182 183 -248 39 -35 76 -64 81 -64 5 0
22 -13 36 -30 15 -16 32 -30 38 -30 5 0 75 -29 154 -65 79 -36 149 -65 157
-65 29 0 88 -22 83 -31 -4 -5 4 -9 16 -9 12 0 58 -18 102 -41 43 -22 81 -38
84 -36 7 8 -137 97 -157 97 -5 0 -19 8 -30 18 -11 9 -24 17 -28 18 -17 1 -331
161 -362 184 -19 15 -50 33 -67 41 -18 8 -33 17 -33 21 0 5 -6 8 -13 8 -13 0
-85 59 -135 110 -67 69 -81 88 -93 129 -12 40 -11 45 7 57 57 42 133 107 218
186 33 32 64 58 68 58 5 0 27 18 49 40 23 22 45 40 50 40 5 0 9 7 9 15 0 7 6
18 14 22 11 7 120 102 175 153 9 9 34 24 54 33 l38 18 37 -32 c20 -18 47 -46
59 -63 12 -17 28 -38 35 -46 7 -8 13 -17 13 -20 1 -3 8 -18 17 -35 29 -54 69
-159 89 -230 43 -159 53 -257 53 -565 1 -255 3 -295 16 -295 28 0 58 84 70
195 13 120 6 340 -16 470 -42 251 -174 491 -335 612 -33 25 -35 25 -88 12z"/>
<path d="M4080 4813 c1 -5 27 -25 58 -45 32 -21 68 -47 80 -58 43 -40 21 1
-24 46 -52 51 -115 82 -114 57z"/>
<path d="M7385 4299 c134 -87 172 -102 245 -103 55 0 77 6 140 36 69 33 130
81 119 93 -3 2 -52 -19 -110 -47 -87 -44 -113 -52 -159 -52 -58 0 -69 4 -205
78 -110 61 -127 57 -30 -5z"/>
<path d="M3670 4300 c0 -17 60 -79 93 -95 145 -73 390 -89 677 -44 121 19 285
73 274 90 -7 12 -61 11 -69 -1 -4 -6 -12 -10 -18 -8 -14 2 -176 -20 -232 -32
-95 -21 -297 -31 -408 -20 -173 16 -235 36 -280 90 -27 31 -37 37 -37 20z"/>
<path d="M8067 2603 c-14 -32 -37 -89 -52 -128 -77 -198 -186 -409 -270 -523
-136 -183 -243 -259 -332 -237 -17 4 -70 49 -133 113 -114 116 -159 156 -201
177 -89 47 -191 57 -276 29 -54 -18 -133 -89 -158 -141 -9 -18 -19 -33 -23
-33 -7 0 -23 48 -55 167 -6 24 -16 44 -22 46 -5 1 -139 -2 -296 -8 -303 -11
-330 -16 -308 -56 5 -10 17 -19 27 -19 9 0 43 -29 75 -65 32 -36 65 -65 73
-65 8 0 14 -3 14 -8 0 -20 351 -169 445 -188 29 -6 38 3 79 86 79 160 131 210
219 210 24 0 64 -7 87 -15 57 -20 155 -91 209 -151 155 -174 177 -189 275
-189 101 1 149 28 269 148 53 54 95 102 92 108 -4 5 -1 9 4 9 31 0 180 279
229 426 59 175 91 364 63 364 -4 0 -20 -26 -34 -57z m-1552 -625 c8 -34 17
-98 20 -140 6 -72 5 -78 -12 -78 -55 1 -363 95 -363 111 0 5 -5 9 -10 9 -18 0
-157 107 -149 114 2 2 76 9 164 16 141 10 302 34 314 46 11 10 24 -18 36 -78z"/>
<path d="M5585 2095 c-27 -8 -77 -23 -109 -34 -33 -12 -73 -21 -91 -21 -17 0
-54 -7 -81 -15 -68 -21 -173 -20 -189 1 -10 15 -14 14 -39 -11 -15 -15 -29
-40 -31 -57 -6 -49 -16 -92 -25 -113 -5 -11 -11 -41 -15 -67 -5 -42 -10 -48
-41 -60 -36 -13 -38 -16 -26 -36 10 -14 174 -9 227 8 16 5 57 17 90 26 33 9
106 39 162 66 155 75 273 202 273 294 0 31 -3 34 -27 33 -16 0 -50 -7 -78 -14z
m85 -44 c0 -5 -6 -16 -13 -23 -6 -7 -23 -30 -37 -50 -14 -21 -31 -38 -39 -38
-8 0 -22 -6 -30 -14 -23 -21 -186 -100 -256 -124 -74 -25 -154 -42 -201 -42
l-36 0 21 35 c11 19 18 42 15 50 -4 8 -1 15 5 15 6 0 11 13 11 28 0 51 32 76
105 80 36 2 65 8 65 12 0 4 48 10 107 13 64 3 109 9 111 16 2 6 13 11 25 11
12 0 45 9 72 20 56 21 75 24 75 11z"/>
<path d="M5776 1964 c-10 -26 -7 -69 6 -82 29 -29 68 2 68 53 0 36 -62 61 -74
29z"/>
</g>
</svg>
