<?xml version="1.0" standalone="no"?>
<!DOCTYPE svg PUBLIC "-//W3C//DTD SVG 20010904//EN"
 "http://www.w3.org/TR/2001/REC-SVG-20010904/DTD/svg10.dtd">
<svg version="1.0" xmlns="http://www.w3.org/2000/svg"
 width="1186.000000pt" height="674.000000pt" viewBox="0 0 1186.000000 674.000000"
 preserveAspectRatio="xMidYMid meet">
<g transform="translate(0.000000,674.000000) scale(0.100000,-0.100000)"
fill="#000000" stroke="none">
<path d="M5090 5531 c-147 -53 -237 -92 -369 -162 -114 -61 -173 -97 -179
-111 -2 -5 -13 -8 -25 -8 -19 -1 -17 -5 17 -34 l40 -34 36 23 c107 68 321 164
490 220 l95 32 5 56 c3 32 3 57 0 56 -3 0 -52 -17 -110 -38z"/>
<path d="M6671 5518 c-7 -24 -17 -48 -22 -54 -7 -8 10 -18 53 -34 74 -27 77
-29 233 -106 178 -88 335 -197 495 -342 l54 -50 27 19 c15 10 29 19 32 19 3 0
18 5 33 10 l28 11 -27 23 c-15 13 -27 27 -27 32 -1 5 -14 20 -31 34 -17 14
-58 51 -92 84 -142 134 -542 362 -628 359 -25 -1 -53 6 -72 17 -18 11 -35 20
-38 20 -3 0 -12 -19 -18 -42z"/>
<path d="M4972 5236 c-18 -31 -36 -58 -41 -60 -5 -3 -30 2 -55 10 -26 9 -50
14 -53 10 -7 -7 59 -36 82 -36 14 0 14 -3 0 -30 -19 -36 -2 -40 20 -6 14 22
20 23 46 14 16 -5 27 -13 25 -17 -5 -7 92 -7 98 0 6 8 56 102 56 105 0 2 -4 4
-9 4 -5 0 -21 -20 -35 -45 -21 -34 -33 -45 -52 -45 l-25 0 31 45 c17 25 29 51
27 58 -2 7 -13 -3 -23 -21 -36 -63 -49 -73 -78 -62 -14 5 -26 11 -26 13 0 3
12 25 26 51 37 66 25 77 -14 12z"/>
<path d="M3791 4142 c4 -73 57 -228 83 -244 6 -4 7 -8 1 -8 -6 0 -6 -3 0 -8 6
-4 27 -30 48 -58 20 -29 54 -65 73 -80 20 -16 43 -35 50 -42 35 -33 216 -100
200 -73 -4 6 -13 11 -19 11 -18 0 -136 58 -153 75 -9 9 -28 22 -42 29 -15 8
-41 29 -59 48 -33 35 -93 139 -93 162 0 8 -5 16 -10 18 -12 4 -40 127 -40 174
0 24 -5 33 -21 37 -19 5 -20 2 -18 -41z"/>
<path d="M5252 3948 c-6 -6 -12 -24 -12 -38 0 -15 -2 -29 -4 -31 -3 -3 -67 1
-143 8 -113 10 -140 16 -153 31 -18 23 -45 33 -65 26 -23 -9 -18 -40 10 -62
14 -11 25 -24 25 -28 0 -11 63 -78 92 -99 16 -11 22 -25 23 -52 0 -34 3 -38
28 -41 16 -2 34 1 40 7 9 7 38 -2 98 -31 67 -32 88 -48 97 -70 11 -29 47 -39
68 -18 6 6 40 4 97 -7 l87 -17 0 -38 c0 -30 4 -38 18 -38 21 0 34 9 48 35 11
20 43 22 144 10 14 -2 28 -4 33 -4 4 -1 7 -16 7 -35 0 -25 5 -36 19 -41 26 -8
61 23 61 52 0 22 2 23 105 23 103 0 106 -1 117 -25 18 -39 68 -27 68 17 0 10
3 18 8 18 19 1 191 30 227 39 58 15 65 14 65 -14 0 -25 13 -31 44 -19 10 4 16
18 16 39 0 30 4 34 58 56 31 12 84 36 117 52 51 26 64 28 89 19 37 -15 49 -7
41 27 -5 23 -1 31 22 46 41 26 173 158 173 172 0 23 -39 24 -82 3 -38 -19
-130 -50 -150 -50 -5 0 -8 15 -8 33 0 36 -15 57 -41 57 -20 0 -29 -20 -29 -66
0 -19 -3 -34 -7 -34 -5 0 -51 -7 -103 -15 -52 -8 -110 -15 -127 -15 -29 0 -33
3 -33 26 0 41 -18 64 -49 64 -32 0 -41 -14 -41 -65 0 -40 -11 -45 -96 -45
l-64 0 0 35 c0 24 -6 37 -21 45 -31 17 -47 6 -56 -41 l-8 -42 -98 -4 -97 -4 0
34 c0 45 -20 71 -48 63 -18 -6 -22 -15 -22 -47 l0 -39 -69 0 c-38 0 -83 3
-100 6 -28 6 -31 10 -31 43 0 43 -14 61 -47 61 -19 0 -23 -6 -24 -32 -1 -18
-1 -39 0 -45 2 -16 -39 -17 -106 -4 -26 6 -69 13 -95 16 l-47 6 -3 47 c-3 42
-6 47 -28 50 -14 2 -31 -3 -38 -10z m-212 -98 c4 -7 156 -36 415 -80 165 -28
260 -34 515 -35 375 0 634 30 823 97 48 17 90 29 93 26 8 -9 -65 -62 -163
-116 -51 -29 -96 -52 -101 -52 -4 0 -46 -16 -92 -36 -103 -44 -111 -46 -277
-89 -219 -56 -270 -62 -366 -42 -45 9 -104 19 -132 22 -278 35 -534 110 -676
198 -59 36 -138 101 -139 113 0 13 91 7 100 -6z"/>
<path d="M7378 3799 c-10 -30 -12 -31 -56 -24 -41 6 -45 5 -33 -9 8 -9 22 -16
32 -16 31 0 22 -19 -13 -29 -28 -8 -29 -9 -9 -10 l24 -1 -22 -24 c-13 -14 -29
-22 -35 -20 -7 3 -23 0 -37 -5 -18 -7 -20 -10 -6 -10 10 -1 16 -5 12 -10 -9
-16 11 -21 41 -10 21 8 37 8 59 -2 17 -6 35 -13 40 -13 38 -5 74 -19 69 -27
-5 -8 -175 -93 -239 -118 -11 -5 -33 -14 -50 -21 -29 -12 -154 -51 -225 -71
-188 -52 -551 -99 -759 -99 -225 0 -549 29 -736 65 -38 7 -101 18 -140 25 -38
7 -90 18 -115 25 -25 7 -99 25 -165 40 -66 15 -127 30 -135 33 -322 108 -396
135 -476 172 -35 17 -68 30 -74 30 -5 0 -10 -14 -10 -32 0 -24 10 -41 45 -75
98 -94 291 -187 585 -283 79 -26 146 -53 148 -59 11 -32 -30 -120 -283 -621
-60 -119 -80 -167 -83 -207 -3 -33 0 -53 6 -53 5 0 15 -14 21 -30 11 -34 68
-113 118 -166 25 -28 38 -34 72 -34 35 0 48 7 93 50 29 27 56 50 60 50 3 0 -4
-35 -17 -77 -32 -109 -37 -133 -26 -133 6 0 17 10 26 23 15 21 17 21 29 4 13
-16 14 -15 18 15 3 18 19 85 35 148 60 223 51 305 -16 157 -35 -77 -117 -177
-145 -177 -14 0 -14 3 -4 20 10 16 10 22 0 32 -11 11 -16 9 -28 -6 -13 -18
-15 -18 -32 -3 -10 9 -25 17 -32 17 -9 0 -7 5 6 14 16 12 17 17 6 28 -11 11
-16 10 -27 -6 -13 -17 -15 -17 -21 -3 -3 9 -11 14 -18 10 -6 -3 -2 3 8 16 18
20 18 23 4 37 -23 23 -62 1 -54 -29 5 -21 5 -21 -9 -3 -19 26 -19 29 5 51 11
10 20 21 20 26 0 4 36 85 81 180 44 96 91 197 104 224 46 100 103 272 115 345
7 41 13 80 15 86 2 8 32 4 97 -12 87 -23 117 -28 269 -54 189 -32 314 -42 598
-47 346 -6 302 6 382 -103 75 -101 187 -330 244 -500 11 -30 25 -62 32 -71 24
-29 16 -59 -22 -75 -43 -18 -46 -18 -39 1 6 16 -12 45 -28 45 -17 0 -20 -31
-4 -49 16 -17 16 -19 -3 -24 -14 -3 -22 1 -26 14 -4 12 -16 19 -31 19 -28 0
-42 -24 -25 -44 9 -10 9 -16 1 -21 -11 -7 -16 -4 -92 58 -40 33 -49 37 -67 27
-21 -11 -26 -34 -15 -64 3 -9 10 -16 15 -16 4 0 34 -16 66 -35 32 -19 67 -35
78 -35 12 0 80 29 153 65 119 59 132 68 132 92 0 31 -76 226 -133 338 -61 123
-163 265 -245 343 -19 18 -33 34 -31 36 2 2 49 9 104 15 245 29 491 88 693
168 254 99 450 229 573 378 l58 69 -72 38 c-39 21 -77 38 -82 38 -6 0 -38 -26
-70 -57 -33 -32 -85 -75 -115 -95 -51 -35 -57 -37 -93 -27 l-38 10 33 37 c24
27 39 37 55 34 13 -2 30 -1 40 2 14 6 15 9 4 16 -8 4 -20 6 -27 3 -6 -2 -15 0
-19 6 -4 7 8 11 34 11 23 0 41 5 41 10 0 6 -14 10 -31 10 -23 0 -30 4 -26 14
4 10 1 13 -9 9 -7 -3 -14 -9 -14 -14 0 -5 -20 -9 -44 -9 l-45 0 6 35 c7 45
-14 48 -29 4z m75 -66 c-13 -2 -35 -2 -50 0 -16 2 -5 4 22 4 28 0 40 -2 28 -4z
m-19 -40 c-61 -54 -60 -54 -89 -43 l-28 11 23 24 c18 19 34 25 69 25 43 0 44
0 25 -17z"/>
<path d="M6272 2916 c-33 -36 -43 -41 -54 -31 -7 7 -24 16 -38 20 -23 7 -22 6
7 -19 35 -29 35 -34 -5 -85 l-19 -23 -41 21 c-23 12 -42 17 -42 11 0 -5 4 -10
9 -10 4 0 20 -9 35 -21 l26 -21 -21 -29 c-28 -40 -17 -48 18 -13 30 31 45 32
79 5 l22 -17 -42 -52 c-22 -28 -46 -51 -52 -51 -7 -1 -26 15 -43 34 -17 19
-34 35 -38 35 -4 0 -25 16 -46 35 -37 34 -57 43 -57 27 0 -8 57 -61 138 -127
17 -15 32 -30 32 -33 0 -4 -11 -19 -25 -34 -17 -18 -21 -29 -13 -34 6 -4 22 7
37 25 l26 32 27 -28 27 -28 -55 -70 c-31 -39 -59 -72 -63 -75 -9 -5 -31 -45
-31 -54 0 -17 20 -1 48 37 17 23 47 60 66 82 20 22 36 43 36 46 0 3 10 17 21
30 12 13 55 66 96 117 42 52 81 92 91 92 10 0 27 -7 39 -15 32 -23 40 2 8 26
l-26 21 34 42 c50 61 83 129 36 75 -94 -110 -97 -111 -139 -79 l-25 19 23 30
c12 17 22 35 22 42 0 6 -10 -1 -22 -17 -12 -16 -25 -33 -29 -38 -10 -12 -89
40 -89 58 0 8 6 16 13 19 11 5 53 67 44 67 -3 0 -23 -20 -45 -44z m-11 -87
c11 -6 29 -19 40 -30 19 -19 19 -20 -8 -48 l-28 -28 -37 19 c-44 23 -45 29
-16 68 25 34 23 33 49 19z m117 -79 l23 -19 -22 -31 c-25 -33 -37 -37 -45 -15
-4 8 -10 13 -14 10 -4 -3 -13 1 -19 8 -8 10 -5 20 11 40 26 32 35 33 66 7z
m-98 -60 c0 -5 7 -10 15 -10 8 0 15 -4 15 -9 0 -5 7 -11 16 -13 13 -2 5 -18
-36 -66 l-52 -62 -29 21 c-16 11 -29 23 -29 26 0 2 19 31 41 64 39 56 59 72
59 49z"/>
<path d="M5532 2538 c-6 -6 -12 -17 -12 -23 0 -6 -9 -18 -20 -28 -11 -9 -20
-24 -20 -32 0 -8 -5 -15 -11 -15 -5 0 -8 -4 -5 -9 3 -4 -4 -17 -15 -27 -38
-34 -64 -104 -39 -104 5 0 16 15 25 34 13 26 21 33 36 29 16 -5 19 -11 14 -32
-4 -14 -11 -27 -16 -29 -5 -2 -9 -11 -9 -20 1 -13 7 -10 25 11 14 16 23 33 20
38 -4 5 8 9 24 9 37 0 37 -4 6 -55 -14 -22 -25 -47 -25 -54 0 -8 14 7 31 35
17 27 33 51 35 53 1 2 16 -6 32 -18 17 -12 33 -21 36 -21 9 0 7 30 -1 30 -5 0
-17 7 -27 15 -18 14 -18 15 0 42 28 42 64 111 64 122 0 6 -7 8 -15 5 -8 -4
-15 -11 -15 -16 0 -5 -8 -20 -18 -33 -13 -16 -23 -21 -33 -14 -12 7 -11 13 3
39 22 39 -2 43 -27 4 -15 -24 -18 -25 -33 -10 -13 13 -14 19 -3 40 16 30 12
53 -7 34z m6 -126 c-41 -52 -80 -38 -42 16 12 18 19 20 35 11 17 -9 18 -13 7
-27z m62 -9 c0 -17 -24 -43 -40 -43 -24 0 -25 4 -4 35 9 14 22 21 30 18 8 -3
14 -7 14 -10z"/>
<path d="M6724 2405 c-7 -18 3 -35 21 -35 21 0 28 19 15 35 -16 19 -29 19 -36
0z"/>
<path d="M6463 2183 c3 -10 11 -39 18 -64 11 -41 15 -46 41 -45 15 1 28 5 28
9 0 16 -31 82 -47 99 -21 23 -47 24 -40 1z"/>
<path d="M5002 1671 c-17 -10 -34 -101 -58 -299 -16 -133 -16 -154 -4 -162 27
-17 40 13 55 125 8 61 22 147 30 192 25 135 19 171 -23 144z"/>
<path d="M6584 1662 c-20 -3 -21 -6 -12 -45 15 -66 5 -344 -15 -389 -9 -21
-19 -38 -22 -38 -3 0 -2 8 3 18 14 24 -3 62 -27 62 -25 0 -44 -34 -36 -60 5
-17 2 -20 -26 -20 -26 0 -29 3 -20 14 15 18 -2 66 -24 66 -17 0 -30 -42 -21
-66 5 -12 -1 -15 -26 -12 -28 3 -32 7 -33 33 0 20 -6 31 -17 33 -14 3 -18 -3
-18 -28 0 -31 -1 -32 -32 -27 -18 3 -54 9 -79 12 -38 6 -49 12 -60 35 -8 15
-63 79 -123 142 -60 62 -125 135 -144 161 -19 26 -37 46 -39 43 -15 -15 74
-163 187 -311 74 -96 64 -86 92 -90 12 -2 50 -13 83 -25 50 -19 87 -23 221
-27 l161 -5 27 34 c36 48 46 114 46 308 0 177 -3 190 -46 182z"/>
<path d="M5760 1611 c0 -18 -120 -190 -183 -262 -35 -41 -69 -84 -76 -96 -11
-22 -61 -53 -108 -67 -17 -6 -23 -3 -23 8 0 22 -31 56 -52 56 -17 0 -24 -16
-30 -70 -3 -26 -9 -23 -43 25 -11 16 -17 18 -32 9 -10 -6 -19 -21 -21 -33 -3
-18 -10 -21 -53 -21 -48 0 -49 1 -49 30 0 23 -4 30 -20 30 -15 0 -22 -9 -27
-31 -6 -29 -7 -30 -47 -24 -22 4 -51 14 -64 22 -22 14 -23 13 -20 -8 8 -55
128 -88 319 -89 134 0 211 22 309 89 90 61 147 145 220 322 33 80 38 119 15
119 -8 0 -15 -4 -15 -9z"/>
</g>
</svg>
