<?xml version="1.0" standalone="no"?>
<!DOCTYPE svg PUBLIC "-//W3C//DTD SVG 20010904//EN"
 "http://www.w3.org/TR/2001/REC-SVG-20010904/DTD/svg10.dtd">
<svg version="1.0" xmlns="http://www.w3.org/2000/svg"
 width="1186.000000pt" height="674.000000pt" viewBox="0 0 1186.000000 674.000000"
 preserveAspectRatio="xMidYMid meet">
<g transform="translate(0.000000,674.000000) scale(0.100000,-0.100000)"
fill="#000000" stroke="none">
<path d="M4885 5103 c-49 -7 -185 -45 -190 -53 -3 -4 13 -45 34 -91 59 -125
87 -248 115 -498 18 -151 13 -177 -32 -168 -24 5 -60 -13 -98 -49 -16 -14 -52
-28 -134 -52 l-65 -19 48 -8 c29 -4 86 -2 145 6 154 21 387 17 506 -9 54 -12
115 -22 136 -22 l39 0 30 80 c37 95 70 252 78 370 13 196 -90 408 -233 479
-68 34 -255 51 -379 34z"/>
<path d="M6660 5071 c-89 -28 -191 -110 -237 -192 -56 -98 -108 -305 -118
-469 -7 -106 8 -266 26 -285 5 -5 9 -16 9 -25 0 -13 33 -15 278 -16 293 0 306
-2 471 -56 62 -20 63 -20 82 -1 20 19 19 20 -48 80 -71 63 -170 199 -180 245
-3 15 -12 33 -19 39 -22 18 -17 41 18 94 41 62 97 117 223 218 55 44 104 84
109 88 13 11 -38 82 -98 136 -56 50 -150 101 -246 132 -66 22 -216 28 -270 12z"/>
</g>
</svg>
